<svg width="81" height="36" viewBox="0 0 81 36" fill="none" xmlns="http://www.w3.org/2000/svg">
<path d="M79 17L65.5355 3.53553C63.5829 1.58291 60.4171 1.58291 58.4645 3.53553L48.5355 13.4645C46.5829 15.4171 43.4171 15.4171 41.4645 13.4645L31.5355 3.53553C29.5829 1.58291 26.4171 1.58291 24.4645 3.53553L14.5355 13.4645C12.5829 15.4171 9.41709 15.4171 7.46447 13.4645L1.5 7.5" stroke="#FBA457" stroke-width="3" stroke-linecap="round"/>
<path d="M79 34L65.5355 20.5355C63.5829 18.5829 60.4171 18.5829 58.4645 20.5355L48.5355 30.4645C46.5829 32.4171 43.4171 32.4171 41.4645 30.4645L31.5355 20.5355C29.5829 18.5829 26.4171 18.5829 24.4645 20.5355L14.5355 30.4645C12.5829 32.4171 9.41709 32.4171 7.46447 30.4645L1.5 24.5" stroke="#FBA457" stroke-width="3" stroke-linecap="round"/>
</svg>
