<svg width="19" height="20" viewBox="0 0 19 20" fill="none" xmlns="http://www.w3.org/2000/svg">
<path fill-rule="evenodd" clip-rule="evenodd" d="M8.22731 0C7.98653 2.31057e-06 7.75382 0.0868852 7.57195 0.244689C7.39009 0.402492 7.27126 0.620619 7.23731 0.859L6.86731 3.457C6.17039 3.72296 5.52051 4.0987 4.94231 4.57L2.50531 3.59C2.28187 3.5002 2.03352 3.49405 1.8059 3.57268C1.57829 3.6513 1.38669 3.80943 1.26631 4.018L0.134311 5.981C0.0137833 6.18944 -0.0274922 6.43437 0.0180665 6.67079C0.0636253 6.90722 0.192959 7.11927 0.382311 7.268L2.44831 8.889C2.33103 9.62502 2.33103 10.375 2.44831 11.111L0.382311 12.732C0.192959 12.8807 0.0636253 13.0928 0.0180665 13.3292C-0.0274922 13.5656 0.0137833 13.8106 0.134311 14.019L1.26631 15.981C1.38669 16.1896 1.57829 16.3477 1.8059 16.4263C2.03352 16.505 2.28187 16.4988 2.50531 16.409L4.94331 15.43C5.52092 15.9011 6.17011 16.2768 6.86631 16.543L7.23831 19.141C7.27226 19.3794 7.39109 19.5975 7.57295 19.7553C7.75482 19.9131 7.98752 20 8.22831 20H10.4933C10.7341 20 10.9668 19.9131 11.1487 19.7553C11.3305 19.5975 11.4494 19.3794 11.4833 19.141L11.8543 16.543C12.5508 16.2772 13.2003 15.9018 13.7783 15.431L16.2163 16.409C16.4396 16.4985 16.6877 16.5045 16.9151 16.4259C17.1425 16.3473 17.334 16.1893 17.4543 15.981L18.5873 14.019C18.7077 13.8104 18.7488 13.5654 18.7031 13.329C18.6574 13.0926 18.5278 12.8806 18.3383 12.732L16.2733 11.111C16.3905 10.375 16.3905 9.62503 16.2733 8.889L18.3383 7.268C18.5278 7.11941 18.6574 6.90743 18.7031 6.67099C18.7488 6.43455 18.7077 6.18955 18.5873 5.981L17.4543 4.019C17.3339 3.81043 17.1423 3.6523 16.9147 3.57368C16.6871 3.49505 16.4388 3.5012 16.2153 3.591L13.7783 4.57C13.2004 4.09881 12.5509 3.72307 11.8543 3.457L11.4833 0.86C11.4494 0.621619 11.3305 0.403492 11.1487 0.245689C10.9668 0.0878852 10.7341 0.00100231 10.4933 0.001H8.22731V0ZM9.36031 13C10.156 13 10.919 12.6839 11.4816 12.1213C12.0442 11.5587 12.3603 10.7956 12.3603 10C12.3603 9.20435 12.0442 8.44129 11.4816 7.87868C10.919 7.31607 10.156 7 9.36031 7C8.56466 7 7.8016 7.31607 7.23899 7.87868C6.67638 8.44129 6.36031 9.20435 6.36031 10C6.36031 10.7956 6.67638 11.5587 7.23899 12.1213C7.8016 12.6839 8.56466 13 9.36031 13Z" fill="#656084"/>
</svg>
